<svg xmlns="http://www.w3.org/2000/svg" xmlns:xlink="http://www.w3.org/1999/xlink" width="310.806" height="249.482" viewBox="0 0 464.806 374.482">
  <defs>
    <clipPath id="clip-path">
      <rect width="65.028" height="69.245" fill="none"/>
    </clipPath>
    <clipPath id="clip-path-2">
      <rect width="37.813" height="13.668" fill="none"/>
    </clipPath>
    <clipPath id="clip-path-3">
      <rect width="39.226" height="11.875" fill="none"/>
    </clipPath>
  </defs>
  <g id="Scene_4" data-name="Scene/4" transform="translate(19.755 45.339)">
    <path id="Background-Shape" d="M297.766,73.3c4.342,32.761-100.967,54.128-191.609,39.216S-26.067,39.365,17.186,8.335,293.423,40.536,297.766,73.3Z" transform="translate(-17.707 206.612) rotate(1)" fill="rgba(110,127,143,0.82)" fill-rule="evenodd"/>
    <path id="Background-Shape-2" data-name="Background-Shape" d="M235.487,29.94c5.056,44.019,14.4,113.915-98.872,117.2-47.7-2.317-87.722,2.013-116.141-28.489S-12.071,32.153,20.011,5.594C70.375-36.1,230.43-14.078,235.487,29.94Z" transform="translate(197.252 43.477) rotate(-4)" fill="none" fill-rule="evenodd"/>
    <g id="Clock" transform="translate(106.483 -45.52)">
      <ellipse id="Clock-Frame" cx="40" cy="38.5" rx="40" ry="38.5" transform="translate(-0.226 0.182)" fill="#f2f2f2"/>
      <circle id="Time" cx="2" cy="2" r="2" transform="translate(38.774 6.182)" fill="rgba(0,0,0,0.1)"/>
      <circle id="Time-2" data-name="Time" cx="2" cy="2" r="2" transform="translate(5.774 37.182)" fill="rgba(0,0,0,0.1)"/>
      <circle id="Time-3" data-name="Time" cx="2" cy="2" r="2" transform="translate(69.774 37.182)" fill="rgba(0,0,0,0.1)"/>
      <circle id="Time-4" data-name="Time" cx="2" cy="2" r="2" transform="translate(38.774 67.182)" fill="rgba(0,0,0,0.1)"/>
      <path id="Hand" d="M52.5,17,54,42.519H51Z" transform="translate(-12.732 -4.447)" fill="#afb9c5" fill-rule="evenodd"/>
      <path id="Hand-2" data-name="Hand" d="M1.219,0,2.96,17.782,0,17.738Z" transform="translate(53.921 50.843) rotate(135)" fill="#afb9c5" fill-rule="evenodd"/>
      <circle id="Time-5" data-name="Time" cx="3" cy="3" r="3" transform="translate(36.774 35.182)" fill="#c5cfd6"/>
    </g>
    <g id="A_Human_Sitting" data-name="A Human/Sitting" transform="translate(40.256 112.711)">
      <g id="Head_Front" data-name="Head/Front" transform="translate(39.46)">
        <g id="Head" transform="translate(2.714 3.993)">
          <path id="Head-2" data-name="Head" d="M0,41.942,5.606,19.816C2.48,16.709.363,12.9.717,8.633,1.736-3.663,21.949-.958,25.88,5.248S29.345,27.2,24.264,28.3c-2.027.442-6.344-.641-10.737-2.884l2.758,16.522Z" transform="translate(0 0)" fill="#bfbfbf"/>
        </g>
        <path id="Hair" d="M7.069,26.627C5.025,18.928-.8,13.679.092,10.238s4.74-4.28,4.74-4.28S6.823-.865,17.679.154,35.16,4.99,32.3,13.39c-2.63,0-5.805-.805-10.2.575-2.09.657-2.989,4.074-2.989,4.074H17.129s-2.888-4.055-5.7-2.98-1.276,5.221-1.276,5.221L9.18,26.627Z" transform="translate(0 -0.05)" fill="#434343"/>
      </g>
      <g id="Bottom_Skinny_Jeans_1" data-name="Bottom/Skinny Jeans 1" transform="translate(0 93.624)">
        <g id="Seat" transform="translate(0 24.131)" clip-path="url(#clip-path)">
          <g id="Seat-2" data-name="Seat">
            <path id="Seat_Stuff" data-name="Seat Stuff" d="M15.62,0H59.3l5.724,69.245H0Z" fill="#c5cfd6"/>
            <path id="Seat_Stuff-2" data-name="Seat Stuff" d="M18.742,0H34.863l9.649,69.245H0Z" fill="rgba(0,0,0,0.1)"/>
          </g>
        </g>
        <path id="Skin" d="M38.764,81.328c-.679-7.268-1.941-32.43-.678-44.077.533-4.916,1.108-9.593,1.672-13.747C27.641,41.956,7.814,68.95,7.814,68.95L0,65.926S9.2,40.247,15.095,29.669C21.819,17.594,28.123,7.253,30.776,3.61,34.95-2.119,42.216-.12,46.055,3.348,51.644.507,61.02,4.157,61.014,8.222c-.02,12.16-13.125,69.471-13.809,73.094-.362,1.917-2.586,3.088-4.663,3.088C40.695,84.4,38.965,83.478,38.764,81.328Z" transform="translate(78.865 8.577)" fill="#bfbfbf"/>
        <path id="LegLower" d="M-3.736,65.619,3.065,5.89C6.109-4.531,26.639-.795,26.316,4.724,25.583,17.255,14.571,60.966,14.352,64.7Z" transform="translate(105.378 4.613) rotate(20)" fill="#203f48"/>
        <g id="Right_Shoe" data-name="Right Shoe" transform="translate(78.739 64.609) rotate(30)" clip-path="url(#clip-path-2)">
          <path id="shoe" d="M2.926,3.441a1.306,1.306,0,0,0-1.678.892L0,8.779A42.935,42.935,0,0,0,.589,14h36.89s1.438-4.807-1.66-5.19-5.147-.692-5.147-.692L13.526.389a.651.651,0,0,0-.871.352l-1.1,2.7A14.7,14.7,0,0,1,6.892,4.8Z" transform="translate(0 -0.332)" fill="#e4e4e4"/>
        </g>
        <g id="Right_Shoe-2" data-name="Right Shoe" transform="translate(114.774 83.501)" clip-path="url(#clip-path-3)">
          <path id="shoe-2" data-name="shoe" d="M3.035,3.033a1.413,1.413,0,0,0-1.74.775L0,7.671a31.528,31.528,0,0,0,.611,4.536H38.88S40.372,8.031,37.158,7.7s-5.34-.6-5.34-.6L14.031.382a.728.728,0,0,0-.9.306L11.985,3.036A17.486,17.486,0,0,1,7.149,4.212Z" transform="translate(0 -0.332)" fill="#e4e4e4"/>
        </g>
        <path id="Leg_and_Butt" data-name="Leg and Butt" d="M115.869,20.933c0,15.264-8.561,50.87-8.566,54.231l-18.418.012s4.044-47.655,2.868-48.169-48.208,3.976-62.314,3.976C9.1,30.983.683,20.121,0,0H40.294c8.2.743,51,8.053,66.891,10.565C113.989,11.641,115.869,16.728,115.869,20.933Z" transform="translate(25.89)" fill="#254c58"/>
      </g>
      <g id="Body_Long_Sleeve_1" data-name="Body/Long Sleeve 1" transform="translate(19.057 21.101)">
        <path id="Skin-2" data-name="Skin" d="M21.432,69.476,0,61.95,4.784,51.935,26.427,65.393A64.643,64.643,0,0,1,41.14,70.4c.93.718,2.055,2.171-1.8,1.92s-7.93-.369-8.462.746,1.8,2.447.726,3.951a.539.539,0,0,1-.47.214Q29.229,77.231,21.432,69.476ZM7.057,13.539,32.775,7A61.181,61.181,0,0,1,46.351.065c1.237-.2,3.285-.083.725,2.376s-5.12,5.141-4.389,6.172,3.393.254,4.163,1.886q.77,1.633-13.231,2.339l-20,9.965Z" transform="translate(68.615)" fill="#bfbfbf"/>
        <path id="Coat_Back" data-name="Coat Back" d="M9.06-.351c16.2,14.925,36.356,24.293,64.06,32.223l-6.725,11.05C37.5,41.676,22.081,40.385,10.624,25.253,7.748,21.455,2.9,8.191-.059,1.321Z" transform="matrix(0.966, 0.259, -0.259, 0.966, 30.94, 13.685)" fill="#26454e"/>
        <path id="Shirt" d="M0,65.5H52.245S34.493,19.654,34.109,2.569c-.013-.581-1.28-1.6-1.84-1.47C26.122,2.569,19.115,0,19.115,0,6.729,16.868,2.446,37.636,0,65.5Z" transform="translate(6.833 12.194)" fill="#f2f2f2"/>
        <path id="Coat_Front" data-name="Coat Front" d="M.964,84.808c-4.424-25.179,7.2-60.089,17.984-77.7A3.675,3.675,0,0,1,22.3,5.171H30.4l.011.027c2.727.019,5.763.111,9.075.2,14.874.415,35.3.829,58.219-5.4l2.767,11.706C79.288,23.24,57.844,32.175,39.053,30.906c8.159,29.638,7.783,53.9-10.231,53.9Z" transform="translate(0 7.023)" fill="#356371"/>
      </g>
    </g>
    <g id="Plant-Left" transform="translate(369.188 184.201)" opacity="0.5">
      <path id="Leaf" d="M127.395,93.174c.927-1.322,2.649-4.681,3.954-5.154.841-.3.6,2.844.606,3.444a50.333,50.333,0,0,1-.465,6.934,27.092,27.092,0,0,1-4.4,11.388,14.374,14.374,0,0,1-4.409,4.8c-.868.523-1.913.61-2.77,1.061-1,.524-.455.1-.9,1.141a23.729,23.729,0,0,0-1.114,4.85c-1.328,7.076-4.542,44.483-3.985,51.68.049.638-.84.791-.885.012-.236-4.13,1.806-32.727,2.837-42.079s2.073-17.614,3.119-20.85a87.606,87.606,0,0,1,5.467-12.307A43.549,43.549,0,0,1,127.395,93.174Z" transform="translate(-88.061 -68.578)" fill="#69a1ac" fill-rule="evenodd"/>
      <path id="Leaf-2" data-name="Leaf" d="M131.161,317.5c2.413-1.772,5.026,1.572,2.842,3.344a2.187,2.187,0,0,1-3.18-.185c-.461.562-.893,1.15-1.308,1.647-1.264,1.513-2.458,3.062-3.6,4.648-2.372,3.294-4.4,6.773-6.529,10.189-2.1,3.371-4.177,6.76-6.078,10.217-1.61,2.929-3.757,6.374-4.308,9.585.836-6.809,4.011-13.355,7.79-19.357,3.749-5.954,8.051-12.456,13.856-17.154A2.056,2.056,0,0,1,131.161,317.5Z" transform="translate(-84.944 -247.038)" fill="#c1dee2" fill-rule="evenodd"/>
      <path id="Leaf-3" data-name="Leaf" d="M.422,244.007c1.351.264,3.557,3.319,4.67,4.483a43.6,43.6,0,0,1,3.655,4.4,74.463,74.463,0,0,1,6.466,10.547,98.032,98.032,0,0,1,7.195,18.724,77.211,77.211,0,0,1,2.183,12.281c.078.778.893,6.773-.282,6.934-1.056.145-.73-4.552-.781-5.191a83,83,0,0,0-4.7-21.019,23.958,23.958,0,0,0-1.845-4.625c-.6-.959,0-.625-1.063-.988-.909-.312-1.944-.236-2.875-.618a14.3,14.3,0,0,1-5.06-4.058A27.269,27.269,0,0,1,1.9,254.3,50.942,50.942,0,0,1,.366,247.51C.283,246.914-.448,243.837.422,244.007Z" transform="translate(0 -190.15)" fill="#69a1ac" fill-rule="evenodd"/>
      <path id="Leaf-4" data-name="Leaf" d="M15.1,3.027A122.384,122.384,0,0,1,27.07,31.356c1.635,5.947,2.779,12.05,3.916,18.108,1.759,9.381,3.424,18.761,3.9,28.309.476,9.6,1.418,20.679-1.726,29.928,1.571-9.39.075-19.386-.19-28.834-.126-4.511-.493-8.977-.974-13.462-.467-4.35-1.229-8.679-1.939-13q-.519-3.153-1.079-6.3c-.11-.626-.157-2.483-.554-2.91s-2.438-.606-3.078-.922a16.519,16.519,0,0,1-3.574-2.494,28.549,28.549,0,0,1-5.258-6.578C13.243,27.756,11.936,21.1,12,14.786,12.015,13.559,13.987.355,13.2.173Q13.267.09,13.33,0,14.23,1.506,15.1,3.027Z" transform="translate(-9.352)" fill="#89c5cc" fill-rule="evenodd"/>
      <path id="Leaf-5" data-name="Leaf" d="M146.382,154.858c.079-.113.589-.9.332-.85.524-.1-.72.868.585.273-.62.585-.262,1.346-.254,2.133a19.108,19.108,0,0,1-.441,3.8,26.05,26.05,0,0,1-1.771,5.741,25.726,25.726,0,0,1-8.455,10.376,16.955,16.955,0,0,1-5.57,2.229c-1.286.36-1.388,1.025-2.071,2.273-1.421,2.6-2.817,5.188-4.07,7.875-1.5,3.208-2.949,6.42-4.319,9.685A154.539,154.539,0,0,0,110,232.569c-.048-6.948,1.559-14.1,3.586-20.726a123.711,123.711,0,0,1,5.45-14.08,17.83,17.83,0,0,0,1.461-3.781,6.97,6.97,0,0,0-.511-2.6,27.226,27.226,0,0,1-.041-11.063c.781-3.924,3.039-5.745,6.858-6.3,1.4-.2,3.172-.129,4.453-.725,1.4-.648,1.971-2.78,2.765-4.149a56.419,56.419,0,0,1,7.571-10.3,24.566,24.566,0,0,1,2.589-2.382A12.653,12.653,0,0,0,146.382,154.858Z" transform="translate(-85.723 -120.012)" fill="#89c5cc" fill-rule="evenodd"/>
      <path id="Base" d="M76.894,476H90.449a1.1,1.1,0,0,1,1.1,1.1,1.09,1.09,0,0,1-.012.161l-1.048,7.1a4.414,4.414,0,0,1-4.367,3.77H81.217a4.414,4.414,0,0,1-4.367-3.77l-1.048-7.1a1.1,1.1,0,0,1,.931-1.253A1.123,1.123,0,0,1,76.894,476Z" transform="translate(-59.064 -370.947)" fill="#c1dee2" fill-rule="evenodd"/>
    </g>
    <g id="Maceta" transform="translate(338.68 265.878)" opacity="0.87">
      <path id="Base-2" data-name="Base" d="M15.418,48.456c0,8.69.686,15.735,9.89,15.735s9.89-7.045,9.89-15.735" transform="translate(-9.124 -28.675)" fill="#f2f2f2" fill-rule="evenodd"/>
      <path id="Fill-27" d="M18.922,14.359a18.2,18.2,0,0,0-.9,1.782,24.386,24.386,0,0,1,.247-3.767c.321-2.176.811-4.34,1.272-6.5.331-1.553.31-4.342,1.567-5.58.345-.267.428.257.428.485,0,.048,0-.929-.335-.759-1.988,1.027-2.633,4.256-3.269,5.872a31.113,31.113,0,0,0-2.044,7.227,16.193,16.193,0,0,0-.137,1.859c-.068-.166-.131-.332-.2-.5a33.565,33.565,0,0,0-4.628-7.74C10.442,6.145,4.464.265,4,1.165a.62.62,0,0,0,.29.325c.009.01.009,0,0-.01.351.567,1.349,1.443,1.66,1.94A37.54,37.54,0,0,1,7.959,7.3c1.306,2.751,2.517,5.53,3.691,8.315.273.649.558,1.294.849,1.937A28.31,28.31,0,0,0,0,7.057c1.88.956,3.112,2.756,4.382,4.133,1.531,1.662,3.144,3.279,4.678,4.939,1.809,1.958,3.938,4.02,5.679,6.187a65.255,65.255,0,0,1,4.335,10.8c-.414-1.285-.032-3.062-.1-4.411a29.807,29.807,0,0,0-.354-3.2,6.573,6.573,0,0,1,.479,1.406c-.076-.749-.163-1.492-.257-2.232.241-.693.477-1.339.637-1.872a48.081,48.081,0,0,1,3.12-8.033,71.7,71.7,0,0,1,4.171-7.127c.716-1.08,1.442-2.156,2.163-3.234A17.035,17.035,0,0,1,30.508,1.9c-4.248,3.884-8.89,7.8-11.585,12.457" transform="translate(0 0)" fill="#f2f2f2" fill-rule="evenodd"/>
    </g>
    <g id="WB_STUFF" data-name="WB STUFF" transform="matrix(0.999, 0.035, -0.035, 0.999, -813.687, -1786.51)">
      <path id="Image-Border" d="M6.2,236.786a28.376,28.376,0,0,1-.227-5.646c-.115-3.246-.156-6.493-.281-9.737-.3-7.731-.495-15.506-1.091-23.221-.569-7.374-2.007-14.524-2.049-21.953-.028-5.025-1.424-17.755,2.976-21.168,7.562-4.412,4.572,11.157,4.447,13.851a160.8,160.8,0,0,0,.95,23.929c.748,7.388-.112,14.743-.4,22.132-.152,3.923-.236,7.84-.531,11.756-.092,1.22.05,6.724-.591,9.655,1.649-.071,3.217,0,4.092-.024,6.126-.185,12.252-.348,18.377-.578,23.562-.886,47.137-.485,70.695-1.6,22.281-1.059,44.645-1.284,66.943-1.557a2.261,2.261,0,0,1,1.572,3.791c-1.225,1.54-6.9,1.2-8.675,1.345-6.281.5-12.549.732-18.848.793-13.265.126-26.481.694-39.725,1.45-23.531,1.341-47.1,1.231-70.641,2.188-5.715.233-11.43.406-17.148.557-3.015.079-10.911,1.894-12.4-1.708C2.587,238.491,4.053,237.319,6.2,236.786ZM136.539,145.16c7.128-.066,14.218.059,21.337.467,3.157.181,6.312.356,9.472.489,1.824.078,5.994-.52,7.595.326,6.284,3.324-6.519,3.688-8.074,3.662-6.531-.11-13.05-.619-19.58-.779-24.019-.589-48.216.872-72.214,1.856-11.544.474-23.081.542-34.621,1.19-6.307.354-12.611.76-18.919,1.092-2.908.154-5.817.3-8.73.376-1.794.045-5.447.788-7.1.11-1.412-.577-2.554-1.384-1.778-3.095.836-1.841,4.474-1.058,6.013-1.088,5.559-.107,11.105-.42,16.654-.759,12.6-.772,25.172-1.674,37.8-1.889C88.444,146.708,112.47,145.383,136.539,145.16Zm33.094,8.2c0-3.3,3.959-3.962,5.714-1.718,1.679,2.146.6,8.642.639,11.21.135,8.461.935,16.873,1.695,25.294.754,8.352,1.288,16.709,1.87,25.073.27,3.867,3.241,19.3-1.077,21.55-5.512,2.874-4.472-11.752-4.627-14.418q-.743-12.874-1.894-25.737C170.7,180.77,169.622,167.255,169.633,153.359Z" transform="translate(1113.186 1613.194)" fill="#b4dee3" fill-rule="evenodd"/>
      <path id="Fill-117" d="M25.252,241.64a9.7,9.7,0,0,1,7.839,10.511c-.729,6.668-7.375,9.725-13.515,8.855-6.967-.988-8.432-6.878-5.057-12.543.747-1.254,1.607-2.756,2.965-3.416.934-.454,2.124-.052,2.876-.419,2.637-1.283,1.052-3.327,4.892-2.987m-2.237-4.356c-5.995.765-17.072,7.7-16.511,14.644a2.008,2.008,0,0,0,2.195.988,10.776,10.776,0,0,0,.23,4.463,9.592,9.592,0,0,0,3.228,4.72c3.135,2.562,7.421,3.19,11.324,2.741,7.29-.838,13.035-5.82,13.444-13.4.4-7.4-6.06-15.145-13.91-14.154" transform="translate(1113.723 1625.067)" fill="#b4dee3" fill-rule="evenodd"/>
      <path id="Fill-119" d="M47.892,245.4c-2.69,1.425-6.945,3.615-8.522,6.322-1.666,2.86.059,5.988,3.57,4.636,2.787-1.074,4.56-4.485,7.533-5.579,2.624-.965,3.681-.473,6.454.488,2.857.99,5.355,1.948,8.444,1.7,3.882-.306,7.245-2.557,11.045-3.069,3.2-.431,5.838.813,8.9,1.309,3.555.575,5.879-.771,9.205-1.472,2.262-.476,6.25,1.463,7.9.737,3.71-1.631-.215-3.625-2.269-4.284-3.46-1.11-5.59-.131-8.881.79-3.573,1-5.117.247-8.532-.67-6.91-1.857-12.249,2.633-18.8,1.817-6.065-.756-9.693-6.1-16.05-2.729" transform="translate(1117.882 1625.983)" fill="#b4dee3" fill-rule="evenodd"/>
      <path id="Fill-121" d="M148.664,242.933c6.652,6.236-.821,15.109-8.155,10.126-2.581-1.754-2.623-4.572-.614-7.093C141.733,243.66,145.769,242.761,148.664,242.933Zm-2.466-5.04c-6.214,1.209-12.075,4.061-12.639,11.233-.549,7,6.629,10.248,12.659,9.789C159.756,257.885,158.777,235.462,146.2,237.893Z" transform="translate(1130.109 1625.133)" fill="#b4dee3" fill-rule="evenodd"/>
      <path id="Image-X" d="M93.491,190.635q11.336,4.029,22.554,8.383c4,1.546,7.985,3.143,11.98,4.711,2,.786,10.32,2.757,10.8,4.755.675,2.821-8.193-.644-9.6-1.1-3.985-1.273-7.921-2.7-11.858-4.118-8.806-3.172-17.574-6.445-26.415-9.522q-1.24-.432-2.482-.86-14.076,6.323-28.085,12.794-7.508,3.478-14.949,7.095c-3.681,1.783-10.342,6.869-14.4,6.779-1.534-.034-2.568-.362-2.728-2.222-.2-2.378,3.626-3.355,5.174-4.129q7.96-3.981,16-7.794c10.635-5.072,21.369-9.943,32.141-14.716l.186-.082q-8.962-3.033-17.97-5.927c-3.431-1.1-27.49-7.041-26.613-10.229.985-3.573,22.294,4.851,25.571,5.9q12.1,3.856,24.119,7.98c19.208-8.63,38.621-17.824,58.657-24.1,1.261-.4,2.059.905,1.773,2-.384,1.462-4.877,2.644-6.125,3.2-4.935,2.2-9.894,4.353-14.828,6.558-10.75,4.8-21.521,9.561-32.269,14.368Z" transform="translate(1116.536 1615.646)" fill="#b4dee3" fill-rule="evenodd"/>
    </g>
  </g>
</svg>
