<svg id="IMG" xmlns="http://www.w3.org/2000/svg" width="300.694" height="269.459" viewBox="0 0 300.694 269.459">
  <path id="Leaf" d="M55.147,122.39a216.047,216.047,0,0,0-4.26-25.254c-1.217-4.905-2.778-9.708-4.2-14.557q.191.913.337,1.834c-.493-1.446-1.523-2.83-2.116-4.271-.661-1.607-1.192-3.277-1.7-4.937-.985-3.239-1.915-6.484-3.024-9.687-1.236-3.568-2.659-7.076-3.985-10.613a86.13,86.13,0,0,0-3.645-9.017c-.8-1.561-1.515-3.238-2.3-4.829-.262-.533-2.514-6.482-2.5-6.482.372,0,1.768,2.644,2,3.033.676,1.135,1.25,2.315,1.831,3.5a15.578,15.578,0,0,1,1.272-4.071c.193-.4,1.547-3.338,1.987-3.338.22,0-1.815,5.552-2.072,6.039a10.055,10.055,0,0,0-.737,1.319c-.22.68-.107.51.075,1.124a32.231,32.231,0,0,0,1.534,3.306,23.507,23.507,0,0,0,1.493,3.47,90.012,90.012,0,0,1,3.886,10.135,21.7,21.7,0,0,1,1.319-4.73C40.5,54,41.665,50.622,42,50.622c.377,0-1.067,5.407-1.263,5.874-.364.868-.937,1.707-1.24,2.59-.332.969.252,1.842.624,2.833,1.369,3.647,2.568,7.33,3.665,11.063,6.367-2.788,7.633-11,8.048-17.047A42.283,42.283,0,0,0,50.4,42.9a87.11,87.11,0,0,0-6.311-16.347A58.48,58.48,0,0,0,32.237,10.187a62.536,62.536,0,0,0-8.4-6.709,17.868,17.868,0,0,0-4.6-2.371A16.659,16.659,0,0,0,16.918.54c-.6-.1-1.816-.659-2.312-.518a15.634,15.634,0,0,0-9.442,6.44A30.271,30.271,0,0,0,.778,17.495,35.108,35.108,0,0,0,.45,30.389a79.708,79.708,0,0,0,2.5,9.692c3.449,11.34,9.494,23.5,20.34,29.717A33.012,33.012,0,0,0,34.7,73.613c.942.147,1.884.287,2.837.341.643.036,2.756-.391,3.222-.113.638.38,1,2.536,1.282,3.317,2.112,5.941,4,11.949,5.714,18.01,1.823,6.449,3.271,12.961,4.478,19.546.513,2.8,1.013,5.6,1.438,8.413.1.655,0,2.716.636,3.294a.771.771,0,0,0,1.216-.232c.418-.779-.263-2.929-.372-3.8" transform="translate(273.713 0) rotate(61)" fill="#7e808d"/>
  <path id="Leave_the_Leaf_" data-name="Leave the Leaf!" d="M48.664,74.341c.2,0,.42-.154.653-.457.538-.7.107-2.975-.125-4.2-.041-.218-.077-.405-.1-.532a26.288,26.288,0,0,0-.7-3.181,91.731,91.731,0,0,0-3.385-9.338c-.463-1.137-.948-2.316-1.442-3.5-.092-.221-.17-.384-.234-.515-.227-.47-.227-.47.234-.973l.082-.089a6.38,6.38,0,0,1,.839-.724,7.813,7.813,0,0,0,.7-.586,15.8,15.8,0,0,0,3.855-6.388,16.032,16.032,0,0,0,.7-6.987,27.468,27.468,0,0,0-1.793-6.851,54.981,54.981,0,0,0-5.578-10.777,49.694,49.694,0,0,0-7.916-9.3A43.108,43.108,0,0,0,21.323,2.25,27.84,27.84,0,0,0,12.918.284c-.4-.028-.822-.043-1.243-.043A22.806,22.806,0,0,0,8.884.424c-.262.032-.536.086-.8.138A8.229,8.229,0,0,1,6.949.73L6.77.74c-.126.007-.224.013-.31.013-.348,0-.485-.1-.923-.531A.635.635,0,0,0,5.118,0a.378.378,0,0,0-.339.289,1.037,1.037,0,0,0,.285,1.085,7.755,7.755,0,0,0-3.552,3.14A11.182,11.182,0,0,0,.118,8.984a32.275,32.275,0,0,0,.766,9.6,44,44,0,0,0,3.108,9.579,50.387,50.387,0,0,0,5.015,8.57A72.443,72.443,0,0,0,23.185,51.1a20.713,20.713,0,0,0,9.525,4.353,11.1,11.1,0,0,0,1.815.15,12.166,12.166,0,0,0,3.809-.639c.1-.032.217-.067.359-.108.58-.168,1.457-.421,1.674-.783.194-.325.014-.606-.213-.963-.067-.105-.136-.213-.2-.332q-.376-.682-.751-1.366c-.659-1.2-1.341-2.442-2.024-3.656-.108-.192-.222-.445-.342-.712a4.655,4.655,0,0,0-1.04-1.689.641.641,0,0,0-.172-.016,1.345,1.345,0,0,1-.544-.09c-.115-.074-.134-.282-.146-.42-.006-.069-.011-.124-.026-.133a5.913,5.913,0,0,0-2.061-.473c-.347-.04-.675-.079-.935-.134-.715-.153-1.559-.344-2.392-.6a26.532,26.532,0,0,1-2.511-.932c-.174-.074-.425-.219-.691-.371a4.753,4.753,0,0,0-1.407-.646,22.983,22.983,0,0,1,5.373.962,20.937,20.937,0,0,1,2.8.975c.11.047.292.148.5.265a4.659,4.659,0,0,0,1.468.638.24.24,0,0,0,.123-.028A54.634,54.634,0,0,0,31.44,39.03c-.7-.88-1.433-1.83-2.1-2.81-.043-.064-.148-.254-.282-.494a7.375,7.375,0,0,0-1.169-1.8c.424,0,1.345.994,1.9,1.586.16.172.3.32.385.4A25.635,25.635,0,0,1,32.2,38.078a49.045,49.045,0,0,1,3,4.072c1.33,1.988,2.5,4.061,3.584,6.014.25.45.518.911.778,1.356A26.9,26.9,0,0,1,41.5,53.285a.228.228,0,0,1,.135-.057c.145,0,.214.234.281.46a2.414,2.414,0,0,0,.076.231c.352.844.7,1.67,1.034,2.492.713,1.736,1.284,3.17,1.8,4.512l.027.072c.6,1.574,1.221,3.2,1.721,4.834A27.658,27.658,0,0,1,47.6,70.515c.079.634.135,1.274.165,1.9C47.792,72.932,48.05,74.341,48.664,74.341Zm-2.917-29.6a17.164,17.164,0,0,1-2.72,4.533c.635-.939,1.181-1.8,1.671-2.636.111-.189.323-.583.528-.964C45.483,45.2,45.724,44.748,45.747,44.739ZM33.63,31.526c.289,0,.6,2.581.628,3.01a12.577,12.577,0,0,1-.5,4.236l0,.006,0-.007a16.231,16.231,0,0,0-.128-2.034c-.181-2.026-.428-4.8-.088-5.171A.113.113,0,0,1,33.63,31.526Z" transform="translate(0 103.609) rotate(-42)" fill="#517074"/>
  <g id="Mobile3" transform="translate(32.897 9.459)">
    <g id="Group" transform="translate(0 184.306)">
      <path id="Fill_16" data-name="Fill 16" d="M6.576,0C5.506,0,4.439.021,3.37.077,2.555.12,1.31-.049.62.459-.1.986-.047,2.066.065,2.828A17.193,17.193,0,0,0,5.121,13.294a29.2,29.2,0,0,0,16.291,7.63A13.23,13.23,0,0,0,33.2,17.5a49.172,49.172,0,0,1,5.1,14.26A34.166,34.166,0,0,1,38.8,39.09c-.051,1.59-.138,3.176-.309,4.759a5.632,5.632,0,0,0-.155,2.378,1.085,1.085,0,0,0,1.86.186,5.341,5.341,0,0,0,.407-2.246c.136-1.065.261-2.13.351-3.2.146-1.731.254-3.468.246-5.205a38.806,38.806,0,0,0-2.074-11.531A39.587,39.587,0,0,0,27.4,5.842C23.868,2.793,19.822,1.558,15.232.9A61.016,61.016,0,0,0,6.576,0" transform="translate(3.231)" fill="#517074"/>
      <path id="Fill_18" data-name="Fill 18" d="M26.313,0C14.761,0,6.981,9.31,3.3,18.986c-1.387,3.647-1.712,7.652-2.246,11.482-.172,1.229-.108,3.1-.607,4.2-.181.4-.6.54-.4,1.081a.878.878,0,0,0,.71.593c.727.134,1.754-.658,2.377-.97,5.167-2.591,8.562-6.6,11.331-11.5a48.943,48.943,0,0,0,4.478-9.529,32.935,32.935,0,0,0,1.2-6.3,23.978,23.978,0,0,0,.16-2.522,5.086,5.086,0,0,0-.669-1.994,17.021,17.021,0,0,1,12.109-.345,15.518,15.518,0,0,1,8.29,7.5,14.3,14.3,0,0,1,1.018,2.763,9.51,9.51,0,0,0,.466,1.991c.721,1.363,2.238.452,2.093-.817a16.411,16.411,0,0,0-5.019-9.554A18.055,18.055,0,0,0,26.313,0" transform="translate(0 28.275)" fill="#517074"/>
    </g>
    <rect id="Container" width="129" height="244" rx="8" transform="translate(40.228 0)" fill="#7e808d"/>
    <ellipse id="Touch" cx="12.5" cy="12" rx="12.5" ry="12" transform="translate(91.228 204)" fill="#fff"/>
    <g id="Camera" transform="translate(91.228 13)">
      <ellipse id="Lens" cx="2" cy="1.5" rx="2" ry="1.5" transform="translate(0 0)" fill="#fff"/>
      <rect id="Sensor" width="17" height="3" rx="1.5" transform="translate(8 0)" fill="#fff"/>
    </g>
    <g id="Rows" transform="translate(51.228 23)">
      <g id="Row" transform="translate(0 0)">
        <rect id="Container-2" data-name="Container" width="106" height="43" rx="4" transform="translate(0 0)" fill="#fff"/>
        <g id="Text_Stuff" data-name="Text Stuff" transform="translate(7.745 12.824)">
          <rect id="Label" width="58.973" height="6.544" rx="3" fill="#dde3e9"/>
          <rect id="Label-2" data-name="Label" width="39.585" height="6.544" rx="3" transform="translate(0 10.906)" fill="#dde3e9"/>
        </g>
        <g id="Check" transform="translate(89 16)">
          <ellipse id="Background" cx="6" cy="5.5" rx="6" ry="5.5" transform="translate(0 0)" fill="#dde3e9"/>
          <ellipse id="Indicator" cx="3" cy="2.5" rx="3" ry="2.5" transform="translate(3 3)" fill="#f2f2f2"/>
        </g>
      </g>
      <g id="Row-2" data-name="Row" transform="translate(0 50)">
        <rect id="Background-2" data-name="Background" width="106" height="33" rx="4" transform="translate(0 0)" fill="#fff"/>
        <g id="Text" transform="translate(31.981 10.002)">
          <rect id="Name" width="58.973" height="5.089" rx="2.545" fill="#dde3e9"/>
          <rect id="Name-2" data-name="Name" width="39.585" height="5.089" rx="2.545" transform="translate(0 8.482)" fill="#dde3e9"/>
        </g>
        <circle id="Avatar" cx="9.5" cy="9.5" r="9.5" transform="translate(8 7)" fill="#c5cfd6"/>
      </g>
      <g id="Row-3" data-name="Row" transform="translate(0 91)">
        <rect id="Container-3" data-name="Container" width="106" height="33" rx="4" transform="translate(0 0)" fill="#fff"/>
        <g id="Text_Stuff-2" data-name="Text Stuff" transform="translate(7.745 9.395)">
          <rect id="Label-3" data-name="Label" width="58.973" height="5.089" rx="2.545" fill="#dde3e9"/>
          <rect id="Label-4" data-name="Label" width="39.585" height="5.089" rx="2.545" transform="translate(0 8.482)" fill="#afb9c5"/>
        </g>
        <g id="Check-2" data-name="Check" transform="translate(89 10)">
          <circle id="Background-3" data-name="Background" cx="6" cy="6" r="6" transform="translate(0 0)" fill="#dde3e9"/>
          <ellipse id="Indicator-2" data-name="Indicator" cx="3" cy="2" rx="3" ry="2" transform="translate(3 4)" fill="#f2f2f2"/>
        </g>
      </g>
      <g id="Row-4" data-name="Row" transform="translate(0 131)">
        <rect id="Background-4" data-name="Background" width="106" height="34" rx="4" transform="translate(0 0)" fill="#fff"/>
        <g id="Text-2" data-name="Text" transform="translate(31.981 9.787)">
          <rect id="Name-3" data-name="Name" width="58.973" height="5.089" rx="2.545" fill="#dde3e9"/>
          <rect id="Name-4" data-name="Name" width="39.585" height="5.089" rx="2.545" transform="translate(0 8.482)" fill="#dde3e9"/>
        </g>
        <circle id="Avatar-2" data-name="Avatar" cx="9.5" cy="9.5" r="9.5" transform="translate(8 7)" fill="#c5cfd6"/>
      </g>
    </g>
  </g>
  <g id="Web" transform="translate(127.125 97.459)">
    <rect id="Container-4" data-name="Container" width="168" height="172" rx="8" transform="translate(0 0)" fill="#517074"/>
    <rect id="Background-5" data-name="Background" width="36" height="39" rx="8" transform="translate(124 22)" fill="#fff"/>
    <g id="Profile_Info" data-name="Profile Info" transform="translate(130 29)">
      <ellipse id="Avatar-3" data-name="Avatar" cx="8" cy="7.5" rx="8" ry="7.5" transform="translate(4 0)" fill="#dde3e9"/>
      <rect id="Name-5" data-name="Name" width="24" height="3" rx="1.5" transform="translate(0 18)" fill="#dde3e9"/>
      <rect id="Name-6" data-name="Name" width="17" height="3" rx="1.5" transform="translate(4 22)" fill="#dde3e9"/>
    </g>
    <g id="Buttons" transform="translate(5 5)">
      <circle id="buttons-2" data-name="buttons" cx="2" cy="2" r="2" transform="translate(0 0)" fill="#f2f2f2"/>
      <circle id="buttons-3" data-name="buttons" cx="2" cy="2" r="2" transform="translate(6 0)" fill="#f2f2f2"/>
      <circle id="buttons-4" data-name="buttons" cx="2" cy="2" r="2" transform="translate(12 0)" fill="#f2f2f2"/>
    </g>
    <g id="Components" transform="translate(124 66)">
      <rect id="Background-6" data-name="Background" width="36" height="96" rx="8" transform="translate(0 0)" fill="#fff"/>
      <g id="Rows-2" data-name="Rows" transform="translate(10 8)">
        <rect id="Data" width="17" height="14" rx="4" transform="translate(0 0)" fill="#dde3e9"/>
        <rect id="Data-2" data-name="Data" width="17" height="13" rx="4" transform="translate(0 17)" fill="#afb9c5"/>
        <rect id="Data-3" data-name="Data" width="17" height="12" rx="4" transform="translate(0 34)" fill="#dde3e9"/>
        <rect id="Data-4" data-name="Data" width="17" height="12" rx="4" transform="translate(0 67)" fill="#dde3e9"/>
        <rect id="Data-5" data-name="Data" width="17" height="14" rx="4" transform="translate(0 50)" fill="#c5cfd6"/>
      </g>
    </g>
    <g id="Rows-3" data-name="Rows" transform="translate(8 22)">
      <g id="Row-5" data-name="Row" transform="translate(0 0)">
        <rect id="Container-5" data-name="Container" width="113" height="23" rx="4" transform="translate(0 0)" fill="#fff"/>
        <g id="Text_Stuff-3" data-name="Text Stuff" transform="translate(4.998 6.711)">
          <rect id="Label-5" data-name="Label" width="83.257" height="3.515" rx="1.757" fill="#dde3e9"/>
          <rect id="Label-6" data-name="Label" width="55.885" height="3.515" rx="1.757" transform="translate(0 5.858)" fill="#dde3e9"/>
        </g>
        <g id="Check-3" data-name="Check" transform="translate(97.207 7.907)">
          <ellipse id="Background-7" data-name="Background" cx="3.49" cy="3.49" rx="3.49" ry="3.49" fill="#dde3e9"/>
          <ellipse id="Indicator-3" data-name="Indicator" cx="1.496" cy="1.496" rx="1.496" ry="1.496" transform="translate(1.994 1.994)" fill="#f2f2f2"/>
        </g>
      </g>
      <g id="Row-6" data-name="Row" transform="translate(0 27)">
        <rect id="Container-6" data-name="Container" width="113" height="20" rx="4" transform="translate(0 0)" fill="#fff"/>
        <g id="Text_Stuff-4" data-name="Text Stuff" transform="translate(4.998 5.934)">
          <rect id="Label-7" data-name="Label" width="83.257" height="2.917" rx="1.458" fill="#dde3e9"/>
          <rect id="Label-8" data-name="Label" width="55.885" height="2.917" rx="1.458" transform="translate(0 4.861)" fill="#dde3e9"/>
        </g>
        <g id="Check-4" data-name="Check" transform="translate(97.207 6.333)">
          <ellipse id="Background-8" data-name="Background" cx="3.49" cy="3.49" rx="3.49" ry="3.49" fill="#dde3e9"/>
          <ellipse id="Indicator-4" data-name="Indicator" cx="1.496" cy="1.496" rx="1.496" ry="1.496" transform="translate(1.994 1.994)" fill="#f2f2f2"/>
        </g>
      </g>
      <g id="Row-7" data-name="Row" transform="translate(0 50)">
        <rect id="Container-7" data-name="Container" width="113" height="20" rx="4" transform="translate(0 0)" fill="#fff"/>
        <g id="Text_Stuff-5" data-name="Text Stuff" transform="translate(4.998 6.366)">
          <rect id="Label-9" data-name="Label" width="83.257" height="2.917" rx="1.458" fill="#dde3e9"/>
          <rect id="Label-10" data-name="Label" width="55.885" height="2.917" rx="1.458" transform="translate(0 4.861)" fill="#dde3e9"/>
        </g>
        <g id="Check-5" data-name="Check" transform="translate(97.207 6.765)">
          <ellipse id="Background-9" data-name="Background" cx="3.49" cy="3.49" rx="3.49" ry="3.49" fill="#dde3e9"/>
          <ellipse id="Indicator-5" data-name="Indicator" cx="1.496" cy="1.496" rx="1.496" ry="1.496" transform="translate(1.994 1.994)" fill="#afb9c5"/>
        </g>
      </g>
      <g id="Row-8" data-name="Row" transform="translate(0 121)">
        <rect id="Container-8" data-name="Container" width="113" height="19" rx="4" transform="translate(0 0)" fill="#fff"/>
        <g id="Text_Stuff-6" data-name="Text Stuff" transform="translate(4.998 5.661)">
          <rect id="Label-11" data-name="Label" width="83.257" height="2.917" rx="1.458" fill="#dde3e9"/>
          <rect id="Label-12" data-name="Label" width="55.885" height="2.917" rx="1.458" transform="translate(0 4.861)" fill="#dde3e9"/>
        </g>
        <g id="Check-6" data-name="Check" transform="translate(97.207 6.06)">
          <ellipse id="Background-10" data-name="Background" cx="3.49" cy="3.49" rx="3.49" ry="3.49" fill="#dde3e9"/>
          <ellipse id="Indicator-6" data-name="Indicator" cx="1.496" cy="1.496" rx="1.496" ry="1.496" transform="translate(1.994 1.994)" fill="#f2f2f2"/>
        </g>
      </g>
      <g id="Row-9" data-name="Row" transform="translate(0 97)">
        <rect id="Container-9" data-name="Container" width="113" height="19" rx="4" transform="translate(0 0)" fill="#fff"/>
        <g id="Text_Stuff-7" data-name="Text Stuff" transform="translate(4.998 6.23)">
          <rect id="Label-13" data-name="Label" width="83.257" height="2.917" rx="1.458" fill="#dde3e9"/>
          <rect id="Label-14" data-name="Label" width="55.885" height="2.917" rx="1.458" transform="translate(0 4.861)" fill="#dde3e9"/>
        </g>
        <g id="Check-7" data-name="Check" transform="translate(97.207 6.629)">
          <ellipse id="Background-11" data-name="Background" cx="3.49" cy="3.49" rx="3.49" ry="3.49" fill="#dde3e9"/>
          <ellipse id="Indicator-7" data-name="Indicator" cx="1.496" cy="1.496" rx="1.496" ry="1.496" transform="translate(1.994 1.994)" fill="#f2f2f2"/>
        </g>
      </g>
      <g id="Row-10" data-name="Row" transform="translate(0 74)">
        <rect id="Container-10" data-name="Container" width="113" height="20" rx="4" transform="translate(0 0)" fill="#fff"/>
        <g id="Text_Stuff-8" data-name="Text Stuff" transform="translate(4.998 5.798)">
          <rect id="Label-15" data-name="Label" width="83.257" height="2.917" rx="1.458" fill="#dde3e9"/>
          <rect id="Label-16" data-name="Label" width="55.885" height="2.917" rx="1.458" transform="translate(0 4.861)" fill="#dde3e9"/>
        </g>
        <g id="Check-8" data-name="Check" transform="translate(97.207 6.197)">
          <ellipse id="Background-12" data-name="Background" cx="3.49" cy="3.49" rx="3.49" ry="3.49" fill="#dde3e9"/>
          <ellipse id="Indicator-8" data-name="Indicator" cx="1.496" cy="1.496" rx="1.496" ry="1.496" transform="translate(1.994 1.994)" fill="#f2f2f2"/>
        </g>
      </g>
    </g>
  </g>
</svg>
