<svg xmlns="http://www.w3.org/2000/svg" width="320" height="292.2" viewBox="0 0 381.936 348.051">
  <g id="Scene_Whiteboard" data-name="Scene/Whiteboard" transform="translate(-49.544 -69.302)">
    <path id="Background-Shape" d="M53.482,452.133c9.686-49.68,107.695-21.378,171.948-36.737s140.27-86.886,190.58-51.848S412.79,483.283,297.4,502.4,43.8,501.812,53.482,452.133Z" transform="translate(-3.456 -92.241)" fill="none" fill-rule="evenodd"/>
    <g id="Cells" transform="translate(74.513 100.289)" opacity="0.75">
      <path id="Fill-5" d="M1.465,2.262C.534,3.192.9,6.494.876,7.716c-.03,1.9.088,3.788.247,5.683C1.23,14.668,1.831,26.78,3.5,25.849c.942-.524.352-4.028.35-5.136,0-2.464-.106-4.921-.271-7.38a64.587,64.587,0,0,1-.161-6.824c.021-.558.544-6.752-1.957-4.247" transform="translate(-0.458 -0.759)" fill="#b4dee3" fill-rule="evenodd"/>
      <path id="Fill-7" d="M41.768.141C33.773.2,25.782.6,17.791.841,13.946.957,10.1,1.1,6.262,1.318c-1.309.073-4.116-.346-5.206.351C-1.365,3.217,2.539,3.579,3.58,3.542,19.394,2.968,35.213,2.213,51.04,2.177c7.764-.017,15.524.2,23.289.154,2.968-.019,6.255-1.3,7,2.157.846,3.9-.126,8.239-.39,12.157a68.829,68.829,0,0,0,0,7.789,40.805,40.805,0,0,0,.175,5.2c.285,1.582,1.422,2.53,2.464.759.623-1.059.313-3.673.354-4.9.056-1.652,0-3.3,0-4.956,0-4.033.569-8.05.493-12.082-.049-2.6-.186-7.314-3.466-7.938-3.611-.688-8.05,0-11.746-.038-9.157-.1-18.3-.411-27.458-.34" transform="translate(-0.235 -0.131)" fill="#b4dee3" fill-rule="evenodd"/>
      <path id="Fill-9" d="M19.71,42.752q-4.522,0-9.044.068c-2.585.043-6.65-.5-9.056.429-1.647.633-2.085,2.472,0,2.962,2.274.534,5.7-.339,8.08-.381,11.929-.211,23.973-.485,35.886.269,11.162.707,22.54,1.392,33.718.646.941-.063,5.737-.254,3.548-2.052-1.277-1.05-6.453-.359-8.112-.409-5.853-.177-11.713-.216-17.565-.438-5.775-.219-11.525-.868-17.3-1.029-6.712-.187-13.439-.065-20.153-.065" transform="translate(-0.206 -17.516)" fill="#b4dee3" fill-rule="evenodd"/>
      <path id="face" d="M21.608,11.855c4.7.205,9.347,7.019,4.593,10.313-4.46,3.09-12.819-.3-10.339-6.289-.357.866.451-.941.461-.953a12.894,12.894,0,0,1,1.9-1.609,7.505,7.505,0,0,1,2.16-1.3c.527-.165.444.455,1.225-.158M19.319,9.4a10.566,10.566,0,0,0-4.714,3.58c-1.046,1.213-2.379,1.851-2.367,3.49,0,.363.469.762.549,1.111.111.483-.018,1.1.071,1.615.91,5.294,7.227,7.079,11.851,6.08a7.66,7.66,0,0,0,6.107-8.941C29.877,12.1,23.6,7.723,19.319,9.4" transform="translate(-5.12 -3.765)" fill="#b4dee3" fill-rule="evenodd"/>
      <path id="Fill-13" d="M20.9,21.147a1.506,1.506,0,0,0,3.009,0,1.506,1.506,0,0,0-3.009,0" transform="translate(-8.656 -8.124)" fill="#b4dee3" fill-rule="evenodd"/>
      <path id="Fill-15" d="M27.258,20.7a1.2,1.2,0,0,0,2.391,0,1.2,1.2,0,0,0-2.391,0" transform="translate(-11.254 -8.063)" fill="#b4dee3" fill-rule="evenodd"/>
      <path id="Fill-17" d="M26.55,26.728c-.766.294-1.736-.316-2.365.086-1.113.712,0,1.357.6,1.643,2.686,1.289,3.164-2.265,1.766-1.73" transform="translate(-9.805 -10.97)" fill="#b4dee3" fill-rule="evenodd"/>
      <path id="Fill-19" d="M78.692,18.362h0m-11.7-1.71c-2.01.454-3.708,2.331-5.892,2.08-1.674-.193-2.807-1.808-4.46-2.042-2.114-.3-7.867,4.522-4.842,5.349,1.765.483,2.744-2.742,4.3-2.913,1.233-.135,2.91,1.377,4.189,1.592,2.384.4,4.022-.912,6.115-1.758,2.274-.92,3.568-.092,5.546.931a7.161,7.161,0,0,0,4.818,1c1.677-.312,3.783-2.036,5.47-1.86,1.653.173,2.833,1.9,4.533,2.058.7.066,1.745.3,1.627-.777-.095-.866-1.061-.719-1.665-1.034-1.555-.81-3.009-2.244-4.885-2.121-1.412.092-2.7,1.084-4,1.558-4.26,1.554-6.654-3.006-10.859-2.063" transform="translate(-20.925 -6.825)" fill="#b4dee3" fill-rule="evenodd"/>
      <path id="Fill-21" d="M52.066,63.089c-8.217.075-16.461.2-24.655.856-1.943.156-21.777,2.029-21.74,2.164.069.25,2.621.631,2.6.69q-.258-.64-1.179-.529c18.812,0,37.564-1.684,56.4-1.381,4.733.076,9.483.044,14.213.193,1.18.037,4.106.884,5.033.35,2.434-1.4-1.988-1.561-2.72-1.62-9.27-.742-18.663-.816-27.959-.723" transform="translate(-2.438 -25.829)" fill="#b4dee3" fill-rule="evenodd"/>
      <path id="Fill-23" d="M1.162,69.435c-1.228,1.232-.1,5.662-.049,7.327.07,2.408.012,4.832.224,7.233a48.924,48.924,0,0,0,1.335,8.326c.4,1.466,1.788,3.8,2.339,1.132.394-1.9-.2-4.426-.412-6.365a75.026,75.026,0,0,1-.356-7.757c-.009-2.27-.053-4.55-.239-6.813-.1-1.175-.688-5.225-2.841-3.083" transform="translate(-0.363 -28.183)" fill="#b4dee3" fill-rule="evenodd"/>
      <path id="Fill-25" d="M33.975,107.964c-5.831.1-11.674.238-17.5.6-2.386.15-4.77.372-7.147.624-.485.051-5.854.269-3.455,2.25,1.083.9,5.537-.342,7.008-.471,2.474-.217,4.948-.358,7.429-.463,5.75-.244,11.517-.46,17.272-.36,10.511.183,20.954.264,31.468.03,1.494-.033,13.2.279,13.594-1.274.32-1.252-3.865-.678-4.628-.656-2.8.084-5.6.064-8.4.05-11.863-.061-23.794-.533-35.647-.332" transform="translate(-2.271 -44.149)" fill="#b4dee3" fill-rule="evenodd"/>
      <path id="Fill-27" d="M132.718,65.34c.185,5.192,1.069,10.377,1.352,15.584.129,2.38.281,4.758.4,7.14.038.768-.272,2.619.637,3.061,1.246.606,1.414-.615,1.647-1.441.674-2.386.218-5.485.157-7.936-.059-2.373-.063-4.751-.238-7.119-.179-2.42-.666-4.794-.893-7.206-.1-1.02.239-2.717-.844-3.35a1.484,1.484,0,0,0-2.215,1.268" transform="translate(-54.322 -26.166)" fill="#b4dee3" fill-rule="evenodd"/>
      <path id="face-2" data-name="face" d="M26.567,78.25l.066.052-.066-.052m-4.955-1.538c1.848.528,3.365.331,5.13,1.676a9.319,9.319,0,0,1,3.449,4.55c1.121,4.166-2.68,6.45-6.244,6.495-3.65.046-9.053-.8-8.866-5.48.143-3.595,2.768-7.1,6.53-7.242m.13-2.355c-4.791.239-8.656,5.619-8.615,10.149.05,5.489,6.27,6.9,10.688,6.942,4.987.043,9.959-3.4,8.623-9.008-1.071-4.493-6.089-8.321-10.7-8.082" transform="translate(-5.483 -30.439)" fill="#b4dee3" fill-rule="evenodd"/>
      <path id="Fill-31" d="M19.542,86.022a1.211,1.211,0,0,0,2.419,0,1.211,1.211,0,0,0-2.419,0" transform="translate(-8.103 -34.734)" fill="#b4dee3" fill-rule="evenodd"/>
      <path id="Fill-33" d="M28.117,84.88a1.221,1.221,0,0,0,2.438,0,1.221,1.221,0,0,0-2.438,0" transform="translate(-11.605 -34.264)" fill="#b4dee3" fill-rule="evenodd"/>
      <path id="Fill-35" d="M23.2,91.448c-1.574,1.572,3.956,4.327,5.26,2.14,1.071-1.8-1.261-1.2-2.088-1.3-.9-.106-2.439-1.574-3.172-.843" transform="translate(-9.481 -37.341)" fill="#b4dee3" fill-rule="evenodd"/>
      <path id="Fill-37" d="M79.027,83.919h0M58.26,81.361c-1.594.3-6.825,2.064-6.9,3.955-.129,3.437,4.994-.083,6.106-.536,3.022-1.228,4.61,1.277,7.646,1.409,2.637.115,5.061-2.142,7.545-1.875,2.6.279,3.854,3.048,6.858,1.578,1.589-.777,1.549-1.976-.235-2.089-1.078-.068-1.819.377-2.943-.087-1.758-.725-2.466-1.906-4.57-1.718-1.588.141-3.023,1.036-4.572,1.383-3.549.793-5.517-2.661-8.938-2.02" transform="translate(-21.098 -33.272)" fill="#b4dee3" fill-rule="evenodd"/>
      <path id="point" d="M115.938,84.92h0m.4-1.431c.018.008.138.174,0,0M114.513,82.4h0m.04-.013c.354.212,3.2,2.16,1.134,2.619-1.051.233-1.92-1.881-1.134-2.619m-.943-2.158c-4.563,2.081.347,9.526,3.928,6.5a3.564,3.564,0,0,0,.239-5.172c-.878-.795-2.975-1.874-4.167-1.329" transform="translate(-45.766 -32.78)" fill="#b4dee3" fill-rule="evenodd"/>
      <path id="Fill-41" d="M27.042,129.908c-5.694,0-11.438-.118-17.124.219-.957.057-4.6-.125-5.1.875-.9,1.83,2.849.922,3.394.867,11.322-1.134,23.149-.481,34.509-.158,9.29.264,18.531.428,27.81.907q3.659.188,7.313.412c.795.048,2.794.574,2.962-.695.155-1.174-2.339-.909-2.962-.942q-7.432-.391-14.859-.813c-11.922-.672-24.005-.675-35.946-.673" transform="translate(-2.034 -53.123)" fill="#b4dee3" fill-rule="evenodd"/>
      <path id="Fill-43" d="M4.041,132.956c-1.064,1.057-.565,5.094-.595,6.428-.052,2.334-.162,4.666-.212,7-.051,2.439.02,4.888.164,7.324.06,1.022.9,5.963,2.221,3.136.59-1.264-.014-4.783-.005-6.215.016-2.605.157-5.2.286-7.8.112-2.237.116-4.476.213-6.714.031-.713.115-5.351-2.073-3.155" transform="translate(-1.436 -54.136)" fill="#b4dee3" fill-rule="evenodd"/>
      <path id="Fill-45" d="M81.088,168.592c-5.542.568-11.172.3-16.734.719-4.794.361-9.583.509-14.39.611-10.883.23-21.785.454-32.637,1.361-2.473.206-4.943.425-7.423.537-1.24.055-6.444-.509-6.832.8-.66,2.227,4.905,1.345,6.106,1.31,2.64-.076,5.267-.267,7.9-.467,11.065-.843,22.172-1.1,33.261-1.445,6.031-.191,12.019-.632,18.037-1.033,3-.2,6.007-.206,9.005-.4.785-.051,3.563.049,4.127-.582.388-.434.486-1.492-.419-1.408" transform="translate(-1.354 -68.927)" fill="#b4dee3" fill-rule="evenodd"/>
      <path id="Fill-47" d="M131.8,132.88c.19,5.314.49,10.624.67,15.938.054,1.6-.429,4.462.461,5.871,1.431,2.266,2.548-.132,2.81-1.544.827-4.457-.062-9.379-.293-13.864-.088-1.71.443-5.518-.383-7.049-.787-1.458-3.334-1.312-3.264.648" transform="translate(-53.949 -53.681)" fill="#b4dee3" fill-rule="evenodd"/>
      <path id="hola-:_" data-name="hola-:)" d="M113.23,145.477c2.123.576,2.433,5.191.038,5.533-3.566.508-2.006-4.581-.038-5.533m-.595-1.835c-.648-.02-2.142-.2-2.542.328-.334.441,0,1.371-.035,1.792-.14,1.5-1.361,2.369-.815,4.142a4.329,4.329,0,0,0,2.572,2.752c6.381,2.206,6.3-10.123.821-9.014" transform="translate(-44.679 -58.71)" fill="#b4dee3" fill-rule="evenodd"/>
      <path id="Fill-51" d="M15.316,140.969l-.048.061.048-.061m5.011-2.666-.075-.641c3.46,1.633,6.212,4.671,5.064,8.748-.876,3.111-4.043,4.214-6.994,3.446a5.225,5.225,0,0,1-3.946-6.848c.406-1.525,1.654-3.574,3.266-4.065.751-.228,2.411.354,2.684-.641M18.3,137.011a4.937,4.937,0,0,0-2.441.922,3.986,3.986,0,0,1,2.441-.922M18.33,135c-2.162.066-3.578,1.375-4.86,2.946-.4.493-1.763,1.8-1.595,2.466.133.526.482,1.294,1.216.708-3.844,7.661,6.087,14.2,12.149,8.868,5.658-4.972.044-15.222-6.91-14.988" transform="translate(-4.966 -55.209)" fill="#b4dee3" fill-rule="evenodd"/>
      <path id="Fill-53" d="M19.476,146.507a.792.792,0,0,0,1.584,0,.792.792,0,0,0-1.584,0" transform="translate(-8.075 -59.597)" fill="#b4dee3" fill-rule="evenodd"/>
      <path id="Fill-55" d="M24.044,146.792a.805.805,0,0,0,1.609,0,.805.805,0,0,0-1.609,0" transform="translate(-9.941 -59.708)" fill="#b4dee3" fill-rule="evenodd"/>
      <path id="Fill-57" d="M23.183,153.482c-.753.061-3.509-.2-3.992.464-.808,1.1.482,1.141,1.115,1.26.571.107,3.052.047,3.4-.46.309-.448.237-1.329-.525-1.264" transform="translate(-7.854 -62.756)" fill="#b4dee3" fill-rule="evenodd"/>
      <path id="Fill-59" d="M64.749,148.118h0m-10.413-.761c-1.7.125-3.133,1.1-4.755,1.49-1.731.416-2.481-.348-4.055-.849a3.828,3.828,0,0,0-4.119.8c-.746.634-2.382,2.093-1.916,3.218,1.067,2.576,3.483-1.616,4.62-1.811,1.773-.3,3.35,1.246,5.394.8,1.852-.4,3.5-1.674,5.431-1.687,1.618-.012,3.143.874,4.74,1.088,2.438.327,4.039-.539,6.293-1.181,1.955-.557,3.325.177,5.164.8.84.282,3.644,1.309,3.128-.553-.146-.526-3.841-1.467-4.413-1.648a6.9,6.9,0,0,0-5.223.344,7.915,7.915,0,0,1-4.675.574c-1.9-.372-3.619-1.538-5.613-1.387" transform="translate(-16.216 -60.251)" fill="#b4dee3" fill-rule="evenodd"/>
    </g>
    <g id="Big-Cards" transform="translate(190.823 69.302)" opacity="0.75">
      <path id="Fill-67" d="M2.759,37.993c.274-5.89.65-11.772.849-17.666.1-2.921.175-5.841.25-8.763q.025-.976.048-1.951c.048-2.21-.214-2.391,2.01-2.587C15.836,6.151,25.8,5.86,35.729,5.068,47.708,4.113,59.75,3.453,71.763,3.157c5.338-.132,10.7-.4,16.039-.238,1.183.037,3.5-.271,3.971.649.2.4-.221,1.764-.275,2.223-.167,1.432-.324,2.869-.42,4.308a98.945,98.945,0,0,0,1.414,25.549c-3.856-2.174-8.727-4.044-13.221-3.673C74.69,32.353,71.263,35,67.6,37.436c-2.074,1.378-2.773,1.74-4.842.405-1.784-1.151-3.471-2.466-5.153-3.757-2.6-1.993-5.047-4.153-7.565-6.242-4.63-3.841-11.008-9.307-17.4-7.7-4.568,1.15-8.787,3.661-12.752,6.118C13.99,29.914,8.657,34.384,2.759,37.993M82.156.3C59.395.3,36.8,2.509,14.107,3.7c-2.37.125-4.733.308-7.095.536C5.438,4.391,1.588,3.753.557,5.1c-.688.9-.1,1.032,0,1.885a26.315,26.315,0,0,1,.018,3.485C.5,13.209.419,15.949.357,18.69.122,29.049-.025,39.406.395,49.762c.091,2.259.914,5.386.464,7.581-.326,1.589-1.416,2.556,1.1,2.849,2.473.289,5.5-.446,7.972-.681s4.979-.494,7.471-.7c10.837-.893,21.778-.758,32.643-1.055,10.963-.3,21.93-.318,32.9-.324,4.589,0,9.832.255,14.309-1.007,1.575-.444,1.83-.663,1.441-2.226-.073-.3-.549-.406-.689-.942a12.863,12.863,0,0,1-.137-2.375c-.145-2.48-.2-4.964-.312-7.446-.2-4.146-.91-8.17-1.439-12.275a114.63,114.63,0,0,1-.591-14.325c-.007-2.647.061-5.284.273-7.923.137-1.693.97-4.22.547-5.8A2.324,2.324,0,0,0,94.97,1.366a4.547,4.547,0,0,0-1.467-.1A13.11,13.11,0,0,1,91.789.95,43.939,43.939,0,0,0,82.156.3" transform="translate(-0.129 -0.302)" fill="#b4dee3" fill-rule="evenodd"/>
      <path id="Fill-69" d="M117.457,18.415c0,1.65-.259,4.084.5,5.637.964,1.97,2.171,1.354,2.491-.5a16.8,16.8,0,0,0-.162-5.14c-.482-1.33-2.83-2.236-2.83,0" transform="translate(-48.027 -7.144)" fill="#b4dee3" fill-rule="evenodd"/>
      <path id="Fill-71" d="M116.885,20.421c-1.549.055-6.059-.317-7.107.928-1.8,2.136,1.332,2.514,2.675,2.394,1.555-.138,6.359.2,7.4-1.047,1.742-2.086-1.751-2.32-2.968-2.275" transform="translate(-44.687 -8.513)" fill="#b4dee3" fill-rule="evenodd"/>
      <path id="Fill-73" d="M14.265,111.252c6.808,1.183,4.69,11.564-1.752,9.159-2.245-.838-5.552-3.259-4.311-6.111.927-2.131,3.947-3.251,6.063-3.048m-2.819-3.227c-4.428.745-7.455,5.537-5.937,9.717,1.464,4.032,7.019,6.985,11.116,5.536,3.911-1.384,5.862-6.587,4.543-10.393-1.378-3.977-5.866-5.508-9.723-4.859" transform="translate(-2.165 -44.236)" fill="#b4dee3" fill-rule="evenodd"/>
      <path id="Fill-75" d="M66.709,115.622c-1.695.141-3.16,1.328-4.866,1.538a10.562,10.562,0,0,1-4.41-.786,9.636,9.636,0,0,0-5.3-.29c-1.41.358-2.8,1.317-4.264,1.433-2.881.227-6.23-3.06-8.479.658-1.078,1.782.487,2.93,2.1,2.1,1.682-.867.856-1.177,2.942-.665a7.972,7.972,0,0,0,4.89.06c1.579-.541,2.965-1.532,4.681-1.644,1.68-.109,3.142.657,4.749.987a10.407,10.407,0,0,0,5.6-.52c1.78-.589,2.491-.911,4.287-.386,1.138.332,3.623,1.39,4.73.538,1.914-1.473-.649-1.688-1.658-1.9-1.625-.337-3.306-1.263-4.993-1.125" transform="translate(-16.016 -47.392)" fill="#b4dee3" fill-rule="evenodd"/>
      <path id="Fill-77" d="M146.963,111.145l.04.031-.04-.031M145.3,110.8c2.475.159,5.151,4.667,1.872,4.828-2.308.112-4.89-3.835-1.872-4.828m-.347-3.689c-7.825,2.185-4.248,13.217,3.3,11.943,3.428-.579,4.59-4.551,3.457-7.491a6.477,6.477,0,0,0-2.57-3.054c-.837-.537-3.23-1.664-4.187-1.4" transform="translate(-57.479 -43.904)" fill="#b4dee3" fill-rule="evenodd"/>
      <path id="Image-Border" d="M4.352,193.166a14.87,14.87,0,0,1-.119-2.959c-.06-1.7-.082-3.4-.147-5.1-.156-4.051-.259-8.126-.572-12.168-.3-3.864-1.052-7.611-1.074-11.5-.015-2.633-.746-9.3,1.56-11.093,3.963-2.312,2.4,5.846,2.331,7.258a84.261,84.261,0,0,0,.5,12.539c.392,3.871-.059,7.726-.209,11.6-.08,2.056-.123,4.108-.278,6.16a36.248,36.248,0,0,1-.31,5.059c.864-.037,1.686,0,2.144-.012,3.21-.1,6.421-.182,9.63-.3,12.347-.464,24.7-.254,37.046-.841,11.676-.555,23.4-.673,35.08-.816a1.185,1.185,0,0,1,.824,1.987c-.642.807-3.618.63-4.546.7-3.291.264-6.576.383-9.877.415-6.951.066-13.877.364-20.817.76-12.331.7-24.68.645-37.017,1.147-2.995.122-5.99.213-8.986.292-1.58.041-5.717.993-6.5-.9C2.46,194.06,3.228,193.446,4.352,193.166Zm68.3-48.014c3.735-.034,7.451.031,11.181.245,1.654.095,3.308.186,4.964.256.956.041,3.141-.273,3.98.171,3.293,1.742-3.416,1.933-4.231,1.919-3.422-.057-6.838-.324-10.26-.408-12.586-.309-25.267.457-37.842.973-6.049.248-12.1.284-18.142.624-3.305.186-6.609.4-9.914.572-1.524.08-3.049.159-4.575.2-.94.024-2.854.413-3.723.057-.74-.3-1.338-.725-.931-1.622.438-.965,2.344-.554,3.151-.57,2.913-.056,5.82-.22,8.727-.4,6.6-.4,13.19-.877,19.806-.99C47.451,145.963,60.041,145.269,72.654,145.152ZM90,149.448a1.641,1.641,0,0,1,2.994-.9c.88,1.125.314,4.529.335,5.874.071,4.434.49,8.842.888,13.254.4,4.377.675,8.756.98,13.139.141,2.026,1.7,10.112-.564,11.293-2.888,1.506-2.343-6.158-2.424-7.555q-.39-6.746-.993-13.487C90.553,163.813,89.99,156.73,90,149.448Z" transform="translate(38.976 -39.454)" fill="#b4dee3" fill-rule="evenodd"/>
      <path id="Image-X" d="M62.46,178.032q5.94,2.111,11.819,4.393c2.1.81,4.184,1.647,6.278,2.469,1.048.412,5.408,1.445,5.659,2.492.354,1.478-4.293-.337-5.033-.574-2.088-.667-4.151-1.415-6.214-2.158-4.614-1.662-9.209-3.378-13.842-4.99l-1.3-.451q-7.376,3.314-14.717,6.7-3.934,1.823-7.833,3.718c-1.929.934-5.42,3.6-7.544,3.553-.8-.018-1.346-.19-1.43-1.164-.107-1.246,1.9-1.758,2.711-2.164q4.171-2.086,8.384-4.084c5.573-2.658,11.2-5.21,16.843-7.712l.1-.043q-4.7-1.589-9.416-3.106c-1.8-.579-14.405-3.69-13.946-5.36.516-1.872,11.682,2.542,13.4,3.089q6.342,2.021,12.639,4.181c10.066-4.522,20.238-9.34,30.738-12.631.661-.207,1.079.474.929,1.047-.2.766-2.556,1.386-3.209,1.677-2.586,1.155-5.185,2.281-7.77,3.437-5.633,2.517-11.277,5.01-16.91,7.529Z" transform="translate(28.367 -47.218)" fill="#b4dee3" fill-rule="evenodd"/>
      <path id="Fill-117" d="M16.318,239.526a5.081,5.081,0,0,1,4.108,5.508c-.382,3.494-3.865,5.1-7.082,4.64-3.651-.518-4.419-3.6-2.65-6.573a4.285,4.285,0,0,1,1.554-1.79c.489-.238,1.113-.027,1.507-.219,1.382-.672.551-1.743,2.563-1.565m-1.172-2.282c-3.142.4-8.946,4.037-8.652,7.674a1.052,1.052,0,0,0,1.15.518,5.647,5.647,0,0,0,.12,2.339,5.026,5.026,0,0,0,1.691,2.474,7.937,7.937,0,0,0,5.934,1.436c3.82-.439,6.831-3.05,7.045-7.023.209-3.878-3.176-7.936-7.289-7.417" transform="translate(37.276 -77.048)" fill="#b4dee3" fill-rule="evenodd"/>
      <path id="Fill-119" d="M43.531,244.876c-1.41.747-3.639,1.894-4.466,3.313-.873,1.5.031,3.138,1.871,2.429,1.461-.563,2.39-2.35,3.948-2.924,1.375-.506,1.929-.248,3.382.256a10.457,10.457,0,0,0,4.425.893c2.034-.16,3.8-1.34,5.788-1.608,1.677-.226,3.059.426,4.665.686,1.863.3,3.081-.4,4.824-.771,1.186-.25,3.275.767,4.14.386,1.944-.855-.113-1.9-1.189-2.245-1.813-.582-2.929-.069-4.654.414-1.872.524-2.681.13-4.471-.351-3.621-.973-6.419,1.38-9.851.952-3.178-.4-5.08-3.194-8.411-1.43" transform="translate(24.107 -79.947)" fill="#b4dee3" fill-rule="evenodd"/>
      <path id="Fill-121" d="M141.46,240.446c3.486,3.268-.43,7.917-4.273,5.306-1.352-.919-1.374-2.4-.322-3.717C137.829,240.827,139.944,240.356,141.46,240.446Zm-1.292-2.641c-3.256.634-6.328,2.128-6.623,5.887-.288,3.667,3.474,5.37,6.634,5.13C147.273,248.282,146.76,236.532,140.168,237.805Z" transform="translate(-14.609 -77.256)" fill="#b4dee3" fill-rule="evenodd"/>
    </g>
    <g id="Cards" transform="translate(74.536 239.838)" opacity="0.75">
      <path id="Fill-173" d="M45.851.356Q35.5.472,25.174,1.124c-6.547.415-13.65.1-20.09,1.369-1.829.36-4.3,2.027-1.867,3.86,1.709,1.289,7.962-.194,10-.319,7.516-.462,15.036-1.015,22.563-1.281,7.125-.252,14.25-.341,21.379-.412,1.088-.011,2.9-.36,3.979-.044,1.557.454,1.188.578,1.3,2.554.211,3.582.153,7.176.082,10.761-.069,3.469-.2,6.938-.185,10.409.009,2.476-.783,7.4.46,9.547,1.788,3.1,3.644-.267,3.777-2.324.256-3.934.141-7.916.142-11.855,0-3.7.027-7.395-.1-11.09-.095-2.67.287-7.33-1.151-9.756C64,.071,60.477.6,57.9.486,53.89.3,49.869.314,45.851.356" transform="translate(-0.838 -0.33)" fill="#b4dee3" fill-rule="evenodd"/>
      <path id="Fill-171" d="M1.661,5.346C1.668,12.293.865,19.194.64,26.133c-.1,3.19-.313,6.694.494,9.826.815,3.162,3.4,3.847,3.7.317.6-7.149.456-14.561.926-21.768C5.926,11.964,7.005,7.3,6,4.919c-.888-2.1-4.34-2.5-4.337.427" transform="translate(-0.536 -0.858)" fill="#b4dee3" fill-rule="evenodd"/>
      <path id="Fill-175" d="M66.754,43.205c-11.979,1.586-24.5,1.008-36.568,1.257-5.788.12-11.576.127-17.365.188-2.02.021-7.151-.748-8.9.388-2.782,1.808.237,3.2,2.079,3.243,11.424.25,22.976-.275,34.4-.65,5.132-.168,10.281-.251,15.4-.687a54.272,54.272,0,0,0,9.654-1.375c.652-.181,2.071-.143,2.217-1.032.09-.55-.073-1.448-.916-1.331" transform="translate(-0.946 -8.096)" fill="#b4dee3" fill-rule="evenodd"/>
      <path id="Fill-177" d="M16.742,55.462C13.413,55.482,3.38,53.935,2,57.182c-1.838,4.33,5.333,3.319,7.261,3.27,4.38-.112,8.757-.125,13.139-.123,4.3,0,8.6-.026,12.9-.128,1.245-.03,4.144.487,4.86-1.013a1.888,1.888,0,0,0-.89-2.642c-2.416-1.452-8.692-.61-11.521-.741-3.662-.169-7.337-.343-11-.343" transform="translate(-0.748 -10.255)" fill="#b4dee3" fill-rule="evenodd"/>
      <path id="Fill-179" d="M67.627,56.471c-1.9.113-5.752-.671-7.456.2-1.937.99-1.255,2.54.418,3.221,1.158.471,5.91.224,7.038-.322,1.176-.57,2.506-3.252,0-3.1" transform="translate(-11.128 -10.462)" fill="#b4dee3" fill-rule="evenodd"/>
      <path id="Fill-181" d="M94.642,6.641c-2.032.558-1.416,12.095-1.468,13.924-.143,5.011-.707,11.313.958,16.139,1.062,3.076,3.1,2.659,2.754-.58-.305-2.843-.829-5.653-1.055-8.514-.513-6.475-1.21-13.381-.726-19.86.206.376,2.134,3.869,2.588,3.608-.137.081-2.224-4.935-3.05-4.717" transform="translate(-17.282 -1.472)" fill="#b4dee3" fill-rule="evenodd"/>
      <path id="Fill-183" d="M117.237,1.44c-4.113.061-8.225.134-12.336.248-3.27.091-8.406-.446-11.4.929C89.927,4.254,91.62,7.9,94.973,7.979c2.966.068,6.13-.6,9.122-.7,8.084-.277,16.183-.336,24.271-.4,7.315-.063,14.941.717,22.192-.381,1.075,9.55-1.833,19.14-.844,28.8.153,1.5.084,3.618,1.994,3.959,2.41.431,2.509-1.956,2.6-3.664.261-4.88.12-9.763.477-14.649.331-4.528.983-9.155.432-13.691-.677-5.581-3.351-5.133-8.079-5.365-9.984-.49-19.906-.586-29.9-.439" transform="translate(-17.018 -0.52)" fill="#b4dee3" fill-rule="evenodd"/>
      <path id="Fill-185" d="M104.453,42.84c-2.1.053-5.576-.593-6.919,1.416-1.4,2.091.26,3.914,2.292,4.344,2.4.508,5.54-.188,8.036-.2,2.6-.008,5.2.021,7.8.032,11.143.044,22.333.212,33.468-.248,1.555-.064,5.968.457,7.044-1.034.955-1.323.287-2.51-.971-3.184-2.063-1.106-6.3-.685-8.6-.773-2.835-.108-5.674-.143-8.509-.187-11.195-.173-22.448-.446-33.641-.169" transform="translate(-18.016 -8.01)" fill="#b4dee3" fill-rule="evenodd"/>
      <path id="Fill-187" d="M114.143,54.67c-4.169.071-8.619-.112-12.748.52-3.63.556-4.077,4.065-.169,4.476,3.591.378,7.945-.328,11.554-.56,1.281-.082,2.772.035,3.386-1.382a2.277,2.277,0,0,0-2.022-3.054" transform="translate(-18.281 -10.175)" fill="#b4dee3" fill-rule="evenodd"/>
      <path id="Fill-189" d="M153.878,55.056c-2.226.055-8.726-.9-9.829,1.641-1.835,4.232,6.966,2.624,8.654,2.562,2.128-.078,10.421,1.164,10.423-2.223,0-3.322-7.21-2.03-9.248-1.979" transform="translate(-26.492 -10.193)" fill="#b4dee3" fill-rule="evenodd"/>
      <path id="Fill-191" d="M1.436,80.224c.005,7.7-.474,15.471.229,23.15.29,3.176.241,9.261,2.08,11.953,1.306,1.911,3.117,1.778,3.831-.518.477-1.534-.286-4.6-.371-6.244-.082-1.575-.178-3.149-.251-4.725-.187-4.06-.172-8.112-.117-12.174.048-3.484.886-8.093.1-11.443-.737-3.122-5.5-3.852-5.5,0" transform="translate(-0.671 -14.329)" fill="#b4dee3" fill-rule="evenodd"/>
      <path id="Fill-193" d="M79.13,72.475c-13.358.335-26.745.036-40.091.7-6.582.326-13.138,1.042-19.686,1.756-3.217.351-6.433.713-9.645,1.108-.969.119-9.023.432-5.994,3.494,1.323,1.337,5.532-.06,7.2-.257,3.225-.381,6.456-.713,9.685-1.054,6.145-.65,12.3-1.266,18.468-1.607,14.534-.805,29.127-.564,43.675-1.1,3.935-.145,7.859-.249,11.8-.094,1.034.041,8.63.427,5.332-2.379-1.56-1.327-7.44-.642-9.389-.682-3.783-.078-7.568.023-11.349.118" transform="translate(-0.99 -13.353)" fill="#b4dee3" fill-rule="evenodd"/>
      <path id="Wireframy-Stuff" d="M100.359,112.946l-.007.009c-.728,1.073-3.417.774-4.594.854-3.584.244-7.1.655-10.655,1.187a171.058,171.058,0,0,1-21.249,1.89c-14.15.35-28.359.023-42.488.992a77.61,77.61,0,0,0-9.289,1.173c-2.2.422-6.434,1.863-6.691-1.769-.31-4.376,10.669-4.368,13.808-4.661,13.479-1.254,27.18-.989,40.7-.8,6.538.091,13.064.291,19.6-.109s13.274-.295,19.753-1c-.834-3.235-.712-7.281-.947-10.587-.6-8.487-.441-17-.828-25.5-.17-3.743,4.929-4.31,6.44-1.28,1.527,3.06.535,9.133.634,12.526.228,7.856,1.685,16.651.147,24.421C104.155,113,101.876,114.418,100.359,112.946Z" transform="translate(-1.414 -13.206)" fill="#b4dee3" fill-rule="evenodd"/>
      <path id="Fill-199" d="M130.8,78.573c-1.8.245-3.31,1.79-2.5,3.749,1.014,2.466,4.037,1.5,6.033,1.347,6.346-.5,12.972.5,19.242-.253,1.712-.2,4.2-1.137,2.659-3.438-1.155-1.729-5.366-1.426-7.156-1.591a95.457,95.457,0,0,0-18.274.187" transform="translate(-23.643 -14.407)" fill="#b4dee3" fill-rule="evenodd"/>
      <path id="Fill-201" d="M142.38,91.814c-2.461.166-8.19.035-9.227,2.836-1.86,5.023,5.426,3.253,7.645,2.968,2.578-.332,8.653.557,10.026-1.943,2.453-4.469-6.285-4.01-8.444-3.861" transform="translate(-24.508 -16.888)" fill="#b4dee3" fill-rule="evenodd"/>
      <path id="Fill-203" d="M136.565,105.058a3.227,3.227,0,0,0,0,4.422c1.431,1.43,4.551,1.133,6.432,1.237,2.624.147,10.159,1.534,11.462-1.555,1.758-4.169-5.066-4.081-7.31-4.318-2.594-.273-8.433-1.937-10.583.214" transform="translate(-25.022 -19.107)" fill="#b4dee3" fill-rule="evenodd"/>
      <path id="Fill-205" d="M24.437,17.413c0,4.481,7,4.481,7,0,0-4.457-7-4.525-7,0" transform="translate(-4.867 -2.815)" fill="#b4dee3" fill-rule="evenodd"/>
      <path id="Fill-207" d="M40.651,17.369c0,5.123,7.972,5.113,7.972,0s-7.972-5.158-7.972,0" transform="translate(-7.804 -2.72)" fill="#b4dee3" fill-rule="evenodd"/>
      <path id="Fill-209" d="M30.458,26.525c-3.875,1.07-.305,4.354,1.494,5.1,2.86,1.193,6.763,2.072,9.623.284,1.138-.711,2.062-1.657,1.228-3.038-.889-1.47-2.106-.816-3.459-.681a10.612,10.612,0,0,1-4.755-.4c-1.235-.41-2.785-1.637-4.133-1.266" transform="translate(-5.643 -5.063)" fill="#b4dee3" fill-rule="evenodd"/>
      <path id="Fill-211" d="M116.69,18c0,3.031,4.707,3.031,4.707,0s-4.707-3.031-4.707,0" transform="translate(-21.58 -3.12)" fill="#b4dee3" fill-rule="evenodd"/>
      <path id="Fill-213" d="M129.4,18.5c0,3.368,5.229,3.368,5.229,0s-5.229-3.368-5.229,0" transform="translate(-23.883 -3.165)" fill="#b4dee3" fill-rule="evenodd"/>
      <path id="Fill-215" d="M126.457,27.956c-2.746.354-10.691,1.159-11.135,4.545-.685,5.223,8.019,1,10.005.586a28.8,28.8,0,0,1,7.316-.284c1.387.055,3.232.28,3.086-1.832-.238-3.469-6.872-3.321-9.272-3.014" transform="translate(-21.325 -5.308)" fill="#b4dee3" fill-rule="evenodd"/>
      <path id="Fill-217" d="M43.794,86.8c-1.991.531-4.6,3.973-3.225,6.079,2.246,3.455,3.236-1.849,4.176-2.36,1.71-.929,3.1,2.466,4.886.685,2.82-2.81-4.061-4.88-5.837-4.4" transform="translate(-7.72 -15.984)" fill="#b4dee3" fill-rule="evenodd"/>
      <path id="eye" d="M70.741,83.7c-2.361.022-7.345,3.364-7.7,5.832a2.441,2.441,0,0,0,2.343,2.9c2.153.026,2.837-2.772,4.7-3.358,2.013-.631,1.714.822,3.452,1.576,1.272.552,2.863.321,3.305-1.243.834-2.95-3.679-5.749-6.105-5.7" transform="translate(-11.856 -15.433)" fill="#b4dee3" fill-rule="evenodd"/>
      <path id="Fill-221" d="M50.116,100.873c-3.776,2.212,2.437,6.956,4.591,7.55,3.252.895,9.8-.776,10.568-4.748a2.124,2.124,0,0,0-2.427-2.73c-1.437.233-2.358,2.036-3.689,2.681a4.12,4.12,0,0,1-4.919-.5c-1.243-1.069-1.909-3.545-4.124-2.253" transform="translate(-9.303 -18.48)" fill="#b4dee3" fill-rule="evenodd"/>
      <path id="Fill-223" d="M46.471,140.814c-3.374.72-6.8.237-10.194.914-3.457.689-5.523,2-8.735.68l-.452-.191c-2.486-1.071-5.091-1.388-7.693.319-1.54,1.01-6.214,4.5-5.651,6.634,1.221,4.621,6.481-2.625,7.822-3.331,2.558-1.347,4.311.373,6.944.859,3.154.581,5.692-1.085,8.663-1.749,3.475-.776,7.384-1.046,10.919-1.462,1.4-.164,6.687.941,7.164-.8.82-2.985-7.462-2.155-8.788-1.874" transform="translate(-2.921 -25.724)" fill="#b4dee3" fill-rule="evenodd"/>
      <path id="Fill-225" d="M82.38,149.49c.221.167.044.033,0,0M91.83,140c2.888-.293,12.129-2.357,14.027.628,1.236,1.944-.725,9.119-2.6,10.047-1.5.741-4.978-.079-6.619-.137-3.053-.107-6.113-.155-9.162-.346-1.023-.064-4.314.124-5.116-.781-.947-1.069-.9-6.767-1.128-8.18,2.656.86,7.817-.95,10.594-1.232M98,137.077c-3.7.16-7.4.439-11.069.934-2.047.277-4.12,1.012-6.01,1.361-.609.112-1.6-.2-2.345.161-2.183,1.055-.271,8.187.255,10.091.809,2.927,2.844,3.4,5.7,3.677a104.877,104.877,0,0,0,11.357.2c3.632-.045,8.529.76,10.567-2.884,1.317-2.357,2.73-7.844,1.6-10.47-1.481-3.455-7.012-3.2-10.054-3.075" transform="translate(-14.489 -25.094)" fill="#b4dee3" fill-rule="evenodd"/>
      <path id="quare" d="M147.463,150.914h0m.811-.978c-.061.093-.346.393,0,0m-8.822-.268q2.447-.461,4.894-.909c-1.546,2.164-3.174,1.27-5.814,1.082l.92-.173m-7.78-.766,1.241-.414a1.687,1.687,0,0,0,.2.884q-1.061-.114-2.121-.246l.678-.224m-3.6-2.662c-.024-.567.83-.178,1.32-.216q-1.415,1.245-1.32.216M140.96,139.8q.187-.238.494.024c-.224.075-1.083.44-.494-.024m8.361-.983c.022,0,.486.626,0,0m-.234-.206h0m-1.044-.122c1.71.289,1.579,2.3,0,0m-20.084-.136c-.348.288-.228.008,0,0m6.537-4.272c-2.9.169-8.23,0-10.654,1.545-3.163,2.018-1.5,8.967-1.216,12.013.418,4.5,2.537,5.784,6.777,6.257a112.7,112.7,0,0,0,15.346.536c4.581-.12,7.189-1.7,8.029-6.519a34.923,34.923,0,0,0,.888-5.173c-.014-.98-.5-1.427-.688-2.261-1.051-4.747-2.811-5.309-7.676-5.516-3.581-.152-7.293-1.066-10.807-.882" transform="translate(-22.531 -24.558)" fill="#b4dee3" fill-rule="evenodd"/>
    </g>
    <g id="Profile" transform="translate(262.322 277.007)" opacity="0.75">
      <path id="face-3" data-name="face" d="M67.712,3.922c7.083.151,15.119,4.071,14,12.376A13.5,13.5,0,0,1,69.523,27.746c-6.557.458-13.489-4.575-14.379-11.25-1-7.509,5.642-12.723,12.568-12.574M64.238.542c-2.871.429-5.615,1.937-8.144,3.287-.965.516-5.858,3.661-2.02,4.442-9.247,14.913,12.515,28.765,24.75,19.073,5.494-4.352,8.387-12.6,4.835-19.063C79.986,1.6,71.275-.515,64.238.542" transform="translate(-11.384 -0.284)" fill="#b4dee3" fill-rule="evenodd"/>
      <path id="Fill-231" d="M65.459,16.193c0,2.785,4.323,2.785,4.323,0s-4.323-2.785-4.323,0" transform="translate(-14.297 -3.242)" fill="#b4dee3" fill-rule="evenodd"/>
      <path id="Fill-233" d="M75.658,16.713c0,3.02,4.687,3.02,4.687,0s-4.687-3.02-4.687,0" transform="translate(-16.48 -3.315)" fill="#b4dee3" fill-rule="evenodd"/>
      <path id="Fill-235" d="M68.765,24.714c-.631,2.291,6.561,3.466,6.8.814.114-1.267-6.362-2.413-6.8-.814" transform="translate(-14.996 -5.345)" fill="#b4dee3" fill-rule="evenodd"/>
      <path id="Fill-237" d="M95.377,21.839c8.276-.993,16.808-.534,25.124-.3,2.081.06,4.162.118,6.244.153,1.323.022,4.181.657,5.336.038,4.729-2.536-4.548-3.763-5.862-3.879a286.489,286.489,0,0,0-29.333-.6c-2.454.1-2.984,4.763-1.509,4.586" transform="translate(-20.525 -3.885)" fill="#b4dee3" fill-rule="evenodd"/>
      <path id="Hola-:_2" data-name="Hola-:)" d="M112.456,63.584c.071-8.671.382-17.4,1.048-26.046.271-3.524.6-7.043.867-10.567.127-1.66.717-3.985-.259-5.441a2.973,2.973,0,0,0-4.54-.483c-1.591,2.059-1.129,5.516-1.327,8.007-.3,3.83-.671,7.658-.854,11.5a176.307,176.307,0,0,0,.162,22.407,68,68,0,0,0,1.706,10.331c.37,1.554,3.315,8.477,2.7,9.432-.96,1.481-8.053.921-9.592.962-3.949.106-7.9.175-11.848.251q-5.072.1-10.145.141c-1.342.012-9.232-.227-7.482,1.764-19.57,1.364-39.514-.913-58.965-1.694-.983-.04-2.59-.319-4.074-.4a12.954,12.954,0,0,1-.36-1.8c-.256-3.126-.322-6.263-.6-9.388C8.385,66.838,7.4,61.177,6.817,55.469s-.525-11.422-.865-17.138c-.058-.98-.2-9-2.221-10.952a9.191,9.191,0,0,0,3.4.339c7.215-.582,14.378-1.836,21.532-2.912,2.047-.308,6.691-.09,8.388-1.113,1.469-.886,2.051-3.991-.505-3.74-7.133.764-14.228,1.95-21.3,3.118-1.893.312-3.781.646-5.669.987-1.261.228-4.589.21-5.566.97-1.188.923-1.314,1.55-.911,1.968-.56-.154-1.23.088-2.036.894-1.523,1.982-.091,6.863.09,9.188.218,2.788.325,5.58.452,8.373a138.8,138.8,0,0,0,1.68,16.074c.974,5.982,1.8,11.988,2.78,17.968a41.6,41.6,0,0,0,1.009,4.58c-2.632,1.346-.843,3.487,1.245,3.866l.046.008c.651,1.587,1.561,3.057,2.271.931a2.106,2.106,0,0,0,.086-.589c5.391.61,11.317.231,16.625.448,11.5.47,23.065,1.175,34.574.817A133.734,133.734,0,0,0,75.562,88.4c2.647-.356,5.3-.781,7.909-1.372.186-.042.47-.086.8-.141.053,0,.108,0,.158,0q5.983-.091,11.959-.333c3.345-.139,6.705-.211,10.039-.526,2.071-.2,6.448-.16,7.719-2.242,1.156-1.894-.777-6.772-1.051-8.9a83.162,83.162,0,0,1-.637-11.3" transform="translate(-0.365 -4.491)" fill="#b4dee3" fill-rule="evenodd"/>
      <path id="Fill-241" d="M80.046,43.608c-3.187.273-6.134,1.77-9.35,1.788-2.7.015-5.357-.791-8.072-.672-3.184.139-4.936,2.2-7.725,2.887-2.22.548-3.619-1.152-5.572-1.9-2.466-.95-4.287-.459-6.4.977-1.553,1.055-5.175,3.424-5.147,5.558.083,6.465,7.626-2.466,9.147-2.574,2.02-.144,4.278,2.159,6.427,2.291,2.842.174,4.664-1.658,7.281-2.326,2.647-.675,5.507.152,8.16.409,3.027.293,5.676-.382,8.6-1.1a17.384,17.384,0,0,1,8.14-.075c1.946.4,6.795,2.7,7.647-.262,1.159-4.041-10.914-5.181-13.142-4.991" transform="translate(-8.373 -9.552)" fill="#b4dee3" fill-rule="evenodd"/>
      <path id="Fill-243" d="M83.936,59.3c-6.53.634-13.1,1.19-19.659,1.368-2.841.077-13.763-1.14-12.795,2.47.83,3.1,15.693,1.147,18.721.911,3.342-.26,6.679-.623,10-1.043,1.178-.149,4.025.005,4.856-.983.793-.943.4-2.875-1.127-2.721" transform="translate(-11.293 -12.913)" fill="#b4dee3" fill-rule="evenodd"/>
      <path id="have-a-nice-day-:_" data-name="have-a-nice-day-:)" d="M34.058,79.1h0m1.377-.019c1.628-.051,1.279-.91,2.9-.463.749.206.826-.1,1.406.616,1.133,1.4.066,4.438-1.051,5.563-4.135,4.167-9.1-5.532-3.259-5.717m0-4.088c-11.32.38-6.584,17.867,3.269,14.3,4.069-1.474,6.627-8.116,4.233-11.848-1.164-1.816-2.649-2.139-4.6-2.264-.453-.029-1.023.629-1.305.6-.672-.071-.609-.821-1.6-.784" transform="translate(-6.463 -16.274)" fill="#b4dee3" fill-rule="evenodd"/>
      <path id="espero" d="M70.271,79.676c-.2-.062,3.574,1.036,3.161.606.882.917-.3,3.085-1.3,3.464-2.415.917-3.771-2.839-1.86-4.07m1.676-4.742c-3.545.5-6.28,1.978-6.765,5.92-.447,3.638,2.011,7.322,5.889,7.394,8.452.155,8.709-14.407.876-13.314" transform="translate(-14.227 -16.249)" fill="#b4dee3" fill-rule="evenodd"/>
      <path id="hola" d="M120.94,78.981c.494,6.461-6.2.547,0,0m-2.875-6.912a1.952,1.952,0,0,0,.8,2.647c-7.9,1.67-6.112,13.562,1.929,11.8,4.089-.894,4.841-5.194,4.232-8.744-.29-1.688-4.5-9.915-6.958-5.707" transform="translate(-24.637 -15.394)" fill="#b4dee3" fill-rule="evenodd"/>
    </g>
    <g id="Checkmark_" data-name="Checkmark!" transform="translate(326.089 113.159)" opacity="0.75">
      <path id="Fill-292" d="M15.208,6.919c5.624.817,11.474,3.461,11.425,10.008-.041,5.5-4.657,11.362-10.585,11.033-5.334-.3-10.357-6.129-11.025-11.128A10.7,10.7,0,0,1,6.848,9.322c2-2.792,5.164-2.787,8.361-2.4M12.552,3.361a11.52,11.52,0,0,0-9.561,4.6,25.217,25.217,0,0,0-2.64,3.574c-.642,1.178-.529,4.175,1.673,2.77-.542,5.8,2.848,11.432,7.722,14.4a12.136,12.136,0,0,0,15.7-1.928c4.036-4.146,5.457-11.149,2.5-16.276s-9.789-7.2-15.393-7.144" transform="translate(-0.01 -1.41)" fill="#b4dee3" fill-rule="evenodd"/>
      <path id="Fill-294" d="M29.137.46A36.178,36.178,0,0,0,22.18,7.431c-1.93,2.492-3.207,5.6-5.526,7.776-1.171-1.276-2.543-4.72-4.879-3.354-1.939,1.134-.69,3.084.254,4.365,2.438,3.307,5.145,4.638,8.272,1.37,2.84-2.967,4.452-6.925,7.107-10.063,1.165-1.377,2.964-2.743,3.891-4.263.841-1.378-.2-4.246-2.163-2.8" transform="translate(-4.398 -0.065)" fill="#b4dee3" fill-rule="evenodd"/>
    </g>
  </g>
</svg>
